<mxfile host="app.diagrams.net" agent="Mozilla/5.0 (Windows NT 10.0; Win64; x64) AppleWebKit/537.36 (KHTML, like Gecko) Chrome/130.0.0.0 Safari/537.36" version="24.8.2">
  <diagram id="prtHgNgQTEPvFCAcTncT" name="Page-1">
    <mxGraphModel dx="840" dy="958" grid="1" gridSize="10" guides="1" tooltips="1" connect="1" arrows="1" fold="1" page="1" pageScale="1" pageWidth="827" pageHeight="1169" math="0" shadow="0">
      <root>
        <mxCell id="0" />
        <mxCell id="1" parent="0" />
        <mxCell id="dNxyNK7c78bLwvsdeMH5-19" value="Atividade" style="swimlane;html=1;childLayout=stackLayout;resizeParent=1;resizeParentMax=0;horizontal=0;startSize=20;horizontalStack=0;" parent="1" vertex="1">
          <mxGeometry x="130" y="80" width="950" height="720" as="geometry" />
        </mxCell>
        <mxCell id="dNxyNK7c78bLwvsdeMH5-20" value="Comercial" style="swimlane;html=1;startSize=20;horizontal=0;" parent="dNxyNK7c78bLwvsdeMH5-19" vertex="1">
          <mxGeometry x="20" width="930" height="160" as="geometry" />
        </mxCell>
        <mxCell id="WzusvtEVslI_Y9P1jHF_-3" value="" style="edgeStyle=none;curved=1;rounded=0;orthogonalLoop=1;jettySize=auto;html=1;fontSize=12;startSize=8;endSize=8;" edge="1" parent="dNxyNK7c78bLwvsdeMH5-20" source="dNxyNK7c78bLwvsdeMH5-23" target="WzusvtEVslI_Y9P1jHF_-2">
          <mxGeometry relative="1" as="geometry" />
        </mxCell>
        <mxCell id="dNxyNK7c78bLwvsdeMH5-23" value="" style="ellipse;whiteSpace=wrap;html=1;" parent="dNxyNK7c78bLwvsdeMH5-20" vertex="1">
          <mxGeometry x="40" y="60" width="40" height="40" as="geometry" />
        </mxCell>
        <mxCell id="dNxyNK7c78bLwvsdeMH5-32" value="" style="ellipse;whiteSpace=wrap;html=1;" parent="dNxyNK7c78bLwvsdeMH5-20" vertex="1">
          <mxGeometry x="770" y="60" width="40" height="40" as="geometry" />
        </mxCell>
        <mxCell id="WzusvtEVslI_Y9P1jHF_-2" value="Recebe Pedido" style="whiteSpace=wrap;html=1;" vertex="1" parent="dNxyNK7c78bLwvsdeMH5-20">
          <mxGeometry x="110" y="50" width="120" height="60" as="geometry" />
        </mxCell>
        <mxCell id="WzusvtEVslI_Y9P1jHF_-13" value="" style="ellipse;whiteSpace=wrap;html=1;" vertex="1" parent="dNxyNK7c78bLwvsdeMH5-20">
          <mxGeometry x="290" y="60" width="40" height="40" as="geometry" />
        </mxCell>
        <mxCell id="WzusvtEVslI_Y9P1jHF_-29" value="Recebe Pedido" style="text;html=1;align=center;verticalAlign=middle;whiteSpace=wrap;rounded=0;fontSize=16;" vertex="1" parent="dNxyNK7c78bLwvsdeMH5-20">
          <mxGeometry x="30" y="20" width="60" height="30" as="geometry" />
        </mxCell>
        <mxCell id="WzusvtEVslI_Y9P1jHF_-30" value="Finaliza Pedido" style="text;html=1;align=center;verticalAlign=middle;whiteSpace=wrap;rounded=0;fontSize=16;" vertex="1" parent="dNxyNK7c78bLwvsdeMH5-20">
          <mxGeometry x="760" y="20" width="60" height="30" as="geometry" />
        </mxCell>
        <mxCell id="WzusvtEVslI_Y9P1jHF_-31" value="Pedido Negado" style="text;html=1;align=center;verticalAlign=middle;whiteSpace=wrap;rounded=0;fontSize=16;" vertex="1" parent="dNxyNK7c78bLwvsdeMH5-20">
          <mxGeometry x="280" y="20" width="60" height="30" as="geometry" />
        </mxCell>
        <mxCell id="WzusvtEVslI_Y9P1jHF_-4" value="Sistema" style="swimlane;horizontal=0;whiteSpace=wrap;html=1;startSize=20;" vertex="1" parent="dNxyNK7c78bLwvsdeMH5-19">
          <mxGeometry x="20" y="160" width="930" height="240" as="geometry" />
        </mxCell>
        <mxCell id="WzusvtEVslI_Y9P1jHF_-8" value="" style="edgeStyle=none;curved=1;rounded=0;orthogonalLoop=1;jettySize=auto;html=1;fontSize=12;startSize=8;endSize=8;" edge="1" parent="WzusvtEVslI_Y9P1jHF_-4" source="WzusvtEVslI_Y9P1jHF_-5" target="WzusvtEVslI_Y9P1jHF_-7">
          <mxGeometry relative="1" as="geometry" />
        </mxCell>
        <mxCell id="WzusvtEVslI_Y9P1jHF_-5" value="Checa Credito" style="whiteSpace=wrap;html=1;" vertex="1" parent="WzusvtEVslI_Y9P1jHF_-4">
          <mxGeometry x="110" y="20" width="120" height="60" as="geometry" />
        </mxCell>
        <mxCell id="WzusvtEVslI_Y9P1jHF_-12" value="" style="edgeStyle=none;curved=1;rounded=0;orthogonalLoop=1;jettySize=auto;html=1;fontSize=12;startSize=8;endSize=8;" edge="1" parent="WzusvtEVslI_Y9P1jHF_-4" source="WzusvtEVslI_Y9P1jHF_-7" target="WzusvtEVslI_Y9P1jHF_-11">
          <mxGeometry relative="1" as="geometry" />
        </mxCell>
        <mxCell id="WzusvtEVslI_Y9P1jHF_-7" value="" style="rhombus;whiteSpace=wrap;html=1;" vertex="1" parent="WzusvtEVslI_Y9P1jHF_-4">
          <mxGeometry x="130" y="120" width="80" height="80" as="geometry" />
        </mxCell>
        <mxCell id="WzusvtEVslI_Y9P1jHF_-11" value="Credito Inválido" style="whiteSpace=wrap;html=1;" vertex="1" parent="WzusvtEVslI_Y9P1jHF_-4">
          <mxGeometry x="250" y="130" width="120" height="60" as="geometry" />
        </mxCell>
        <mxCell id="WzusvtEVslI_Y9P1jHF_-21" value="" style="edgeStyle=none;curved=1;rounded=0;orthogonalLoop=1;jettySize=auto;html=1;fontSize=12;startSize=8;endSize=8;" edge="1" parent="WzusvtEVslI_Y9P1jHF_-4" source="WzusvtEVslI_Y9P1jHF_-17" target="WzusvtEVslI_Y9P1jHF_-20">
          <mxGeometry relative="1" as="geometry" />
        </mxCell>
        <mxCell id="WzusvtEVslI_Y9P1jHF_-17" value="Verificar Estoque" style="whiteSpace=wrap;html=1;" vertex="1" parent="WzusvtEVslI_Y9P1jHF_-4">
          <mxGeometry x="420" y="130" width="120" height="60" as="geometry" />
        </mxCell>
        <mxCell id="WzusvtEVslI_Y9P1jHF_-20" value="Emitir Ordem" style="whiteSpace=wrap;html=1;" vertex="1" parent="WzusvtEVslI_Y9P1jHF_-4">
          <mxGeometry x="570" y="130" width="120" height="60" as="geometry" />
        </mxCell>
        <mxCell id="WzusvtEVslI_Y9P1jHF_-26" value="Emitir Nota Fiscal" style="whiteSpace=wrap;html=1;" vertex="1" parent="WzusvtEVslI_Y9P1jHF_-4">
          <mxGeometry x="730" y="130" width="120" height="60" as="geometry" />
        </mxCell>
        <mxCell id="dNxyNK7c78bLwvsdeMH5-21" value="Analista" style="swimlane;html=1;startSize=20;horizontal=0;" parent="dNxyNK7c78bLwvsdeMH5-19" vertex="1">
          <mxGeometry x="20" y="400" width="930" height="160" as="geometry" />
        </mxCell>
        <mxCell id="WzusvtEVslI_Y9P1jHF_-9" value="Autorizar Liberação" style="whiteSpace=wrap;html=1;" vertex="1" parent="dNxyNK7c78bLwvsdeMH5-21">
          <mxGeometry x="110" y="40" width="120" height="60" as="geometry" />
        </mxCell>
        <mxCell id="dNxyNK7c78bLwvsdeMH5-22" value="Estoque" style="swimlane;html=1;startSize=20;horizontal=0;" parent="dNxyNK7c78bLwvsdeMH5-19" vertex="1">
          <mxGeometry x="20" y="560" width="930" height="160" as="geometry" />
        </mxCell>
        <mxCell id="WzusvtEVslI_Y9P1jHF_-25" value="" style="edgeStyle=none;curved=1;rounded=0;orthogonalLoop=1;jettySize=auto;html=1;fontSize=12;startSize=8;endSize=8;" edge="1" parent="dNxyNK7c78bLwvsdeMH5-22" source="WzusvtEVslI_Y9P1jHF_-22" target="WzusvtEVslI_Y9P1jHF_-24">
          <mxGeometry relative="1" as="geometry" />
        </mxCell>
        <mxCell id="WzusvtEVslI_Y9P1jHF_-22" value="Separar Produto" style="whiteSpace=wrap;html=1;" vertex="1" parent="dNxyNK7c78bLwvsdeMH5-22">
          <mxGeometry x="570" y="40" width="120" height="60" as="geometry" />
        </mxCell>
        <mxCell id="WzusvtEVslI_Y9P1jHF_-24" value="Libera Pedido" style="whiteSpace=wrap;html=1;" vertex="1" parent="dNxyNK7c78bLwvsdeMH5-22">
          <mxGeometry x="730" y="40" width="120" height="60" as="geometry" />
        </mxCell>
        <mxCell id="WzusvtEVslI_Y9P1jHF_-6" value="" style="edgeStyle=none;curved=1;rounded=0;orthogonalLoop=1;jettySize=auto;html=1;fontSize=12;startSize=8;endSize=8;" edge="1" parent="dNxyNK7c78bLwvsdeMH5-19" source="WzusvtEVslI_Y9P1jHF_-2" target="WzusvtEVslI_Y9P1jHF_-5">
          <mxGeometry relative="1" as="geometry" />
        </mxCell>
        <mxCell id="WzusvtEVslI_Y9P1jHF_-10" value="" style="edgeStyle=none;curved=1;rounded=0;orthogonalLoop=1;jettySize=auto;html=1;fontSize=12;startSize=8;endSize=8;" edge="1" parent="dNxyNK7c78bLwvsdeMH5-19" source="WzusvtEVslI_Y9P1jHF_-7" target="WzusvtEVslI_Y9P1jHF_-9">
          <mxGeometry relative="1" as="geometry" />
        </mxCell>
        <mxCell id="WzusvtEVslI_Y9P1jHF_-14" value="" style="edgeStyle=none;curved=1;rounded=0;orthogonalLoop=1;jettySize=auto;html=1;fontSize=12;startSize=8;endSize=8;" edge="1" parent="dNxyNK7c78bLwvsdeMH5-19" source="WzusvtEVslI_Y9P1jHF_-11" target="WzusvtEVslI_Y9P1jHF_-13">
          <mxGeometry relative="1" as="geometry" />
        </mxCell>
        <mxCell id="WzusvtEVslI_Y9P1jHF_-19" style="edgeStyle=none;curved=1;rounded=0;orthogonalLoop=1;jettySize=auto;html=1;exitX=1;exitY=0.5;exitDx=0;exitDy=0;entryX=0.5;entryY=1;entryDx=0;entryDy=0;fontSize=12;startSize=8;endSize=8;" edge="1" parent="dNxyNK7c78bLwvsdeMH5-19" source="WzusvtEVslI_Y9P1jHF_-9" target="WzusvtEVslI_Y9P1jHF_-17">
          <mxGeometry relative="1" as="geometry">
            <Array as="points">
              <mxPoint x="490" y="500" />
            </Array>
          </mxGeometry>
        </mxCell>
        <mxCell id="WzusvtEVslI_Y9P1jHF_-23" value="" style="edgeStyle=none;curved=1;rounded=0;orthogonalLoop=1;jettySize=auto;html=1;fontSize=12;startSize=8;endSize=8;" edge="1" parent="dNxyNK7c78bLwvsdeMH5-19" source="WzusvtEVslI_Y9P1jHF_-20" target="WzusvtEVslI_Y9P1jHF_-22">
          <mxGeometry relative="1" as="geometry" />
        </mxCell>
        <mxCell id="WzusvtEVslI_Y9P1jHF_-27" value="" style="edgeStyle=none;curved=1;rounded=0;orthogonalLoop=1;jettySize=auto;html=1;fontSize=12;startSize=8;endSize=8;" edge="1" parent="dNxyNK7c78bLwvsdeMH5-19" source="WzusvtEVslI_Y9P1jHF_-24" target="WzusvtEVslI_Y9P1jHF_-26">
          <mxGeometry relative="1" as="geometry" />
        </mxCell>
        <mxCell id="WzusvtEVslI_Y9P1jHF_-28" style="edgeStyle=none;curved=1;rounded=0;orthogonalLoop=1;jettySize=auto;html=1;exitX=0.5;exitY=0;exitDx=0;exitDy=0;entryX=0.5;entryY=1;entryDx=0;entryDy=0;fontSize=12;startSize=8;endSize=8;" edge="1" parent="dNxyNK7c78bLwvsdeMH5-19" source="WzusvtEVslI_Y9P1jHF_-26" target="dNxyNK7c78bLwvsdeMH5-32">
          <mxGeometry relative="1" as="geometry" />
        </mxCell>
      </root>
    </mxGraphModel>
  </diagram>
</mxfile>
